<mxfile host="app.diagrams.net" agent="Mozilla/5.0 (Windows NT 10.0; Win64; x64) AppleWebKit/537.36 (KHTML, like Gecko) Chrome/128.0.0.0 Safari/537.36" version="24.7.10">
  <diagram name="Página-1" id="ezk_v9-AT4GSyGLxztcH">
    <mxGraphModel dx="880" dy="468" grid="1" gridSize="10" guides="1" tooltips="1" connect="1" arrows="1" fold="1" page="1" pageScale="1" pageWidth="827" pageHeight="1169" math="0" shadow="0">
      <root>
        <mxCell id="0" />
        <mxCell id="1" parent="0" />
        <mxCell id="vsMSiogiuT-Vf72JWeEr-4" style="edgeStyle=orthogonalEdgeStyle;rounded=0;orthogonalLoop=1;jettySize=auto;html=1;exitX=1;exitY=0.5;exitDx=0;exitDy=0;entryX=0;entryY=0.5;entryDx=0;entryDy=0;" edge="1" parent="1" source="vsMSiogiuT-Vf72JWeEr-1" target="vsMSiogiuT-Vf72JWeEr-2">
          <mxGeometry relative="1" as="geometry" />
        </mxCell>
        <mxCell id="vsMSiogiuT-Vf72JWeEr-1" value="Tipo" style="rounded=1;arcSize=10;whiteSpace=wrap;html=1;align=center;" vertex="1" parent="1">
          <mxGeometry x="170" y="150" width="100" height="40" as="geometry" />
        </mxCell>
        <mxCell id="vsMSiogiuT-Vf72JWeEr-5" style="edgeStyle=orthogonalEdgeStyle;rounded=0;orthogonalLoop=1;jettySize=auto;html=1;exitX=1;exitY=0.5;exitDx=0;exitDy=0;" edge="1" parent="1" source="vsMSiogiuT-Vf72JWeEr-2" target="vsMSiogiuT-Vf72JWeEr-3">
          <mxGeometry relative="1" as="geometry" />
        </mxCell>
        <mxCell id="vsMSiogiuT-Vf72JWeEr-17" style="edgeStyle=orthogonalEdgeStyle;rounded=0;orthogonalLoop=1;jettySize=auto;html=1;exitX=0.5;exitY=1;exitDx=0;exitDy=0;entryX=0.5;entryY=0;entryDx=0;entryDy=0;" edge="1" parent="1" source="vsMSiogiuT-Vf72JWeEr-2" target="vsMSiogiuT-Vf72JWeEr-12">
          <mxGeometry relative="1" as="geometry" />
        </mxCell>
        <mxCell id="vsMSiogiuT-Vf72JWeEr-2" value="Curso" style="rounded=1;arcSize=10;whiteSpace=wrap;html=1;align=center;" vertex="1" parent="1">
          <mxGeometry x="350" y="150" width="100" height="40" as="geometry" />
        </mxCell>
        <mxCell id="vsMSiogiuT-Vf72JWeEr-3" value="Instrutor" style="rounded=1;arcSize=10;whiteSpace=wrap;html=1;align=center;" vertex="1" parent="1">
          <mxGeometry x="530" y="150" width="100" height="40" as="geometry" />
        </mxCell>
        <mxCell id="vsMSiogiuT-Vf72JWeEr-6" value="Alunos" style="rounded=1;arcSize=10;whiteSpace=wrap;html=1;align=center;" vertex="1" parent="1">
          <mxGeometry x="710" y="320" width="100" height="40" as="geometry" />
        </mxCell>
        <mxCell id="vsMSiogiuT-Vf72JWeEr-8" value="ID" style="rounded=1;arcSize=10;whiteSpace=wrap;html=1;align=center;rotation=-90;" vertex="1" parent="1">
          <mxGeometry x="170" y="60" width="50" height="20" as="geometry" />
        </mxCell>
        <mxCell id="vsMSiogiuT-Vf72JWeEr-10" value="Descrição" style="rounded=1;arcSize=10;whiteSpace=wrap;html=1;align=center;rotation=-90;" vertex="1" parent="1">
          <mxGeometry x="-20" y="80" width="65" height="20" as="geometry" />
        </mxCell>
        <mxCell id="vsMSiogiuT-Vf72JWeEr-19" style="edgeStyle=orthogonalEdgeStyle;rounded=0;orthogonalLoop=1;jettySize=auto;html=1;exitX=1;exitY=0.5;exitDx=0;exitDy=0;entryX=0;entryY=0.5;entryDx=0;entryDy=0;" edge="1" parent="1" source="vsMSiogiuT-Vf72JWeEr-11" target="vsMSiogiuT-Vf72JWeEr-6">
          <mxGeometry relative="1" as="geometry" />
        </mxCell>
        <mxCell id="vsMSiogiuT-Vf72JWeEr-11" value="Pedidos" style="rounded=1;arcSize=10;whiteSpace=wrap;html=1;align=center;" vertex="1" parent="1">
          <mxGeometry x="530" y="320" width="100" height="40" as="geometry" />
        </mxCell>
        <mxCell id="vsMSiogiuT-Vf72JWeEr-18" style="edgeStyle=orthogonalEdgeStyle;rounded=0;orthogonalLoop=1;jettySize=auto;html=1;exitX=1;exitY=0.5;exitDx=0;exitDy=0;entryX=0;entryY=0.5;entryDx=0;entryDy=0;" edge="1" parent="1" source="vsMSiogiuT-Vf72JWeEr-12" target="vsMSiogiuT-Vf72JWeEr-11">
          <mxGeometry relative="1" as="geometry" />
        </mxCell>
        <mxCell id="vsMSiogiuT-Vf72JWeEr-12" value="Curso, pedido" style="rounded=1;arcSize=10;whiteSpace=wrap;html=1;align=center;" vertex="1" parent="1">
          <mxGeometry x="350" y="320" width="100" height="40" as="geometry" />
        </mxCell>
        <mxCell id="vsMSiogiuT-Vf72JWeEr-13" style="edgeStyle=orthogonalEdgeStyle;rounded=0;orthogonalLoop=1;jettySize=auto;html=1;exitX=0.25;exitY=1;exitDx=0;exitDy=0;endArrow=none;endFill=0;strokeWidth=2;startArrow=oval;startFill=1;" edge="1" parent="1">
          <mxGeometry relative="1" as="geometry">
            <mxPoint x="194.5" y="150" as="targetPoint" />
            <mxPoint x="194.5" y="100" as="sourcePoint" />
          </mxGeometry>
        </mxCell>
        <mxCell id="vsMSiogiuT-Vf72JWeEr-15" style="edgeStyle=orthogonalEdgeStyle;rounded=0;orthogonalLoop=1;jettySize=auto;html=1;exitX=0.25;exitY=1;exitDx=0;exitDy=0;endArrow=none;endFill=0;strokeWidth=2;startArrow=oval;startFill=0;" edge="1" parent="1">
          <mxGeometry relative="1" as="geometry">
            <mxPoint x="220" y="150" as="targetPoint" />
            <mxPoint x="220" y="100" as="sourcePoint" />
          </mxGeometry>
        </mxCell>
        <mxCell id="vsMSiogiuT-Vf72JWeEr-20" value="Descrição" style="rounded=1;arcSize=10;whiteSpace=wrap;html=1;align=center;rotation=-90;" vertex="1" parent="1">
          <mxGeometry x="187.5" y="52.5" width="65" height="20" as="geometry" />
        </mxCell>
      </root>
    </mxGraphModel>
  </diagram>
</mxfile>
